<svg width="73" height="37" viewBox="0 0 73 37" fill="none" xmlns="http://www.w3.org/2000/svg">
<rect width="73" height="37" rx="5" fill="white"/>
<path d="M21.824 19.3383C22.2289 19.3383 22.6338 19.3459 23.0371 19.3383C23.2115 19.3383 23.2919 19.3823 23.26 19.5642C23.1923 20.0033 23.0956 20.4375 22.9704 20.8637C22.523 22.3148 21.6452 23.5956 20.4533 24.5364C19.6568 25.1674 18.7437 25.6352 17.7663 25.9132C16.6138 26.2532 15.3972 26.3156 14.216 26.0953C13.0347 25.8749 11.9224 25.3781 10.97 24.6455C9.92666 23.8486 9.10408 22.7985 8.58022 21.5946C8.39935 21.1589 8.25628 20.7084 8.15261 20.2481C7.97823 19.5476 8.00097 18.8425 8.00097 18.1358C8.03341 17.2258 8.25007 16.3319 8.63784 15.508C9.13271 14.3921 9.89585 13.4159 10.8593 12.6663C11.7315 11.9669 12.7498 11.4725 13.8389 11.2197C14.8677 10.9677 15.9376 10.932 16.9808 11.1151C18.686 11.4018 20.2414 12.2646 21.3873 13.5595C22.155 14.3983 22.7122 15.4077 23.0129 16.5042C23.116 16.8818 23.1857 17.2624 23.2631 17.646C23.301 17.8295 23.2252 17.8947 23.0311 17.8917C22.2198 17.8826 21.4101 17.8917 20.6049 17.8841C20.4245 17.8841 20.3471 17.9251 20.3547 18.1222C20.3699 18.4543 20.3699 18.7894 20.3547 19.1215C20.3547 19.3065 20.4154 19.3519 20.5882 19.3474C20.9946 19.3383 21.4086 19.3383 21.824 19.3383Z" fill="#60BA46"/>
<path d="M29.3982 11.2363C30.1759 11.2382 30.9447 11.4014 31.6561 11.7155C31.7219 11.7543 31.7994 11.7681 31.8746 11.7545C31.9498 11.7408 32.0175 11.7006 32.0655 11.6412C32.1959 11.5108 32.3369 11.3 32.5598 11.4001C32.7827 11.5002 32.666 11.7231 32.672 11.8884C32.7039 12.7709 32.8752 13.6397 32.9146 14.5207C32.9237 14.7027 32.9146 14.8452 32.6933 14.8665C32.581 14.8786 32.5189 14.8665 32.4749 14.7391C32.3353 14.2968 32.1423 13.8731 31.9002 13.4775C31.4241 12.7557 30.8479 12.1461 29.9593 11.9884C28.9448 11.808 27.8849 11.9172 27.2799 12.9271C26.7234 13.8566 26.7916 15.47 28.0502 16.1645C28.7816 16.5537 29.5508 16.8672 30.3459 17.1001C31.1041 17.3381 31.8623 17.6065 32.4613 18.1524C32.7978 18.4558 33.0702 18.8236 33.2621 19.2341C33.4541 19.6446 33.5618 20.0894 33.5788 20.5422C33.6668 21.9069 33.3817 23.1624 32.3854 24.1632C31.8562 24.6955 31.189 24.9699 30.443 25.1049C29.8483 25.2022 29.2412 25.1945 28.6491 25.0821C27.9336 24.9479 27.2613 24.6419 26.69 24.1905C26.6097 24.1299 26.5141 24.0965 26.4413 24.0389C26.2594 23.8873 26.1547 23.9904 26.0501 24.1314C25.9852 24.2394 25.91 24.341 25.8257 24.4347C25.7605 24.4953 25.6741 24.5863 25.5634 24.5105C25.517 24.4846 25.4789 24.4461 25.4536 24.3993C25.4284 24.3526 25.417 24.2996 25.4208 24.2466C25.4299 23.9206 25.5239 23.6083 25.5452 23.2838C25.5952 22.4937 25.6771 21.7067 25.7423 20.9167C25.7529 20.7939 25.7423 20.6741 25.9212 20.6847C26.1002 20.6953 26.2639 20.6498 26.3018 20.8803C26.32 20.9956 26.3246 21.1139 26.3352 21.2306C26.4459 22.4285 26.9796 23.3869 28.0199 24.0025C29.1586 24.6758 30.7099 24.5954 31.6379 23.6128C32.0807 23.1442 32.2323 22.5665 32.2202 21.9342C32.1989 20.7332 31.5772 19.9356 30.5522 19.3837C29.9108 19.0395 29.2117 18.8484 28.543 18.5724C27.7014 18.2252 26.9205 17.7961 26.3124 17.097C26.0503 16.7766 25.8609 16.4031 25.7575 16.0022C25.6567 15.6563 25.5942 15.3003 25.5709 14.9408C25.4936 13.7717 25.9773 12.8558 26.8037 12.09C27.5392 11.4153 28.4551 11.256 29.3982 11.2363Z" fill="#231F20"/>
<path d="M49.2079 19.4018C49.0562 19.7247 48.9258 20.0083 48.8015 20.3025C48.2344 21.6288 47.6683 22.9561 47.1032 24.2844C47.0122 24.4982 46.9151 24.7075 46.8135 24.9152C46.7857 24.9918 46.7353 25.0582 46.6689 25.1055C46.6026 25.1529 46.5235 25.1791 46.442 25.1806C46.2904 25.1806 46.2055 25.0289 46.1524 24.8985C45.8203 24.0145 45.4928 23.129 45.1577 22.2449C44.7028 21.0318 44.2327 19.8188 43.7748 18.6057C43.7172 18.454 43.658 18.3024 43.611 18.1508C43.4882 17.7671 43.2001 17.6595 42.8528 17.6352C42.7723 17.6254 42.6908 17.6254 42.6102 17.6352C42.3282 17.6837 42.2569 17.5639 42.263 17.294C42.269 17.0241 42.316 16.9483 42.5935 16.9604C43.5837 17.0074 44.5739 16.9999 45.5656 16.9604C45.7415 16.9604 45.9052 16.9498 45.8689 17.2C45.8446 17.3835 45.9902 17.6625 45.5959 17.6352C45.3609 17.6185 45.2653 17.7671 45.3108 18.0355C45.4024 18.4534 45.5198 18.8651 45.6626 19.2683C46.0341 20.5163 46.4132 21.7627 46.7878 23.0107C46.8014 23.0531 46.8044 23.1062 46.856 23.1138C46.9318 23.1244 46.9288 23.0547 46.9485 23.0077C47.3973 21.9401 47.8462 20.8736 48.295 19.8081C48.43 19.4882 48.571 19.1713 48.712 18.8544C48.8166 18.6221 48.8301 18.3591 48.7499 18.1174C48.729 18.02 48.6755 17.9326 48.5984 17.8695C48.5213 17.8064 48.425 17.7714 48.3253 17.7702C48.2617 17.7702 48.1995 17.7611 48.1358 17.7596C47.7779 17.7505 47.6233 17.5094 47.7537 17.1697C47.7992 17.0544 47.8932 17.0726 47.9796 17.0757C48.4345 17.0893 48.8985 17.1181 49.358 17.1181C49.8887 17.1181 50.4194 17.0984 50.9502 17.0726C51.1624 17.062 51.2383 17.1272 51.2337 17.3456C51.2231 17.7489 51.2337 17.7732 50.8228 17.7505C50.4846 17.7323 50.3512 18.0264 50.4543 18.3145C50.6545 18.8847 50.8258 19.4655 51.0108 20.0417C51.2716 20.8575 51.5294 21.6733 51.7993 22.486C51.8281 22.5755 51.7356 22.7377 51.8948 22.7468C52.0298 22.7559 52.0101 22.5952 52.0465 22.5042C52.1981 22.1646 52.3285 21.8128 52.4604 21.464C52.7819 20.6133 53.1079 19.7657 53.4112 18.9089C53.5228 18.664 53.5901 18.4011 53.6098 18.1326C53.6098 17.7914 53.4582 17.6079 53.1276 17.6367C52.7561 17.6686 52.8471 17.4305 52.8244 17.2288C52.8001 16.9786 52.9275 16.9513 53.1276 16.9604C53.9738 16.9953 54.8214 17.0029 55.6675 16.9604C55.898 16.9483 55.9571 17.0393 55.9299 17.2394C55.9071 17.4078 56.0375 17.6443 55.6781 17.6382C54.9306 17.6261 54.7683 17.7641 54.4651 18.5147C53.9313 19.8097 53.3869 21.0925 52.8547 22.395C52.5135 23.2245 52.186 24.063 51.8539 24.894C51.7902 25.0547 51.6947 25.1836 51.5097 25.1836C51.4282 25.1796 51.3504 25.1487 51.2884 25.0958C51.2264 25.0428 51.1837 24.9708 51.167 24.891C50.9577 24.3132 50.7576 23.7325 50.5529 23.1532C50.1844 22.1024 49.8114 21.0546 49.4474 20.0022C49.4004 19.7905 49.3195 19.5877 49.2079 19.4018Z" fill="#231F20"/>
<path d="M65.3191 17.7026C65.4707 17.4752 65.5026 17.1992 65.6224 16.9626C65.6679 16.8717 65.6618 16.7412 65.821 16.7549C65.9802 16.7685 65.9363 16.9065 65.9438 17.0036C65.9696 17.3068 65.9833 17.6101 65.9984 17.9134C65.9984 17.974 66.0166 18.0529 65.9287 18.065C65.8407 18.0772 65.8241 17.9907 65.821 17.9134C65.8123 17.6582 65.7798 17.4044 65.724 17.1552C65.6375 17.3978 65.5481 17.6389 65.4647 17.8831C65.4374 17.9589 65.4313 18.0544 65.3237 18.0499C65.216 18.0453 65.2008 17.968 65.172 17.8846C65.0932 17.6253 65.0052 17.369 64.9218 17.1128H64.849C64.849 17.3584 64.849 17.6056 64.849 17.8512C64.849 17.9331 64.8763 18.0635 64.7399 18.0529C64.6034 18.0423 64.6701 17.9301 64.6731 17.8558C64.6883 17.5525 64.705 17.2492 64.7262 16.946C64.7262 16.8565 64.749 16.7594 64.8779 16.7549C65.0067 16.7503 65.0052 16.8231 65.0295 16.9065C65.1114 17.1719 65.213 17.4282 65.3191 17.7026Z" fill="#353232"/>
<path d="M63.9726 17.4736C63.9726 17.3917 63.9726 17.3098 63.9726 17.2294C63.9938 17.0232 63.9726 16.8686 63.6966 16.9262C63.639 16.9383 63.5556 16.9368 63.5586 16.8458C63.5617 16.7548 63.639 16.7639 63.7012 16.7639H64.4093C64.4639 16.7639 64.5276 16.7639 64.5336 16.8367C64.5427 16.9292 64.4654 16.9383 64.4048 16.9262C64.1576 16.8837 64.15 17.0293 64.1576 17.2112C64.1667 17.4539 64.1576 17.698 64.1576 17.9406C64.1576 18.0073 64.15 18.0756 64.0651 18.0756C63.9802 18.0756 63.9771 18.0028 63.9756 17.9376L63.9726 17.4736Z" fill="#302D2E"/>
<path d="M15.4099 23.2457C13.566 23.3351 12.2468 22.0887 11.7342 20.6254C11.4537 19.8263 11.249 19.0059 11.3233 18.1522C11.4476 16.7072 12.0072 15.4819 13.3355 14.7768C14.262 14.284 15.2749 14.0429 16.3227 14.3841C17.0103 14.616 17.5814 15.1051 17.9164 15.7488C18.1044 16.0525 18.2383 16.3865 18.3122 16.736C18.3241 16.7766 18.3274 16.8194 18.3219 16.8614C18.3163 16.9034 18.302 16.9438 18.2798 16.98C18.2577 17.0161 18.2282 17.0472 18.1933 17.0713C18.1584 17.0953 18.1188 17.1118 18.0771 17.1196C17.8605 17.1779 17.6408 17.224 17.419 17.2576C16.3576 17.4092 15.2961 17.5866 14.2347 17.7534C13.8177 17.8186 13.4022 17.8884 12.9837 17.9415C12.8321 17.9597 12.7684 18.0097 12.7866 18.1598C12.8988 19.1288 13.0777 20.0735 13.7131 20.8635C14.4318 21.7551 15.3507 22.1691 16.4865 21.9371C16.9389 21.8571 17.3642 21.6654 17.7238 21.3794C18.0834 21.0934 18.3659 20.7222 18.5457 20.2994C18.6018 20.1751 18.623 20.0265 18.8217 20.1053C18.9945 20.172 19.1583 20.2266 19.0779 20.4768C18.7095 21.6126 18.0711 22.5224 16.9126 22.9773C16.7638 23.0359 16.6119 23.0866 16.4577 23.1289C16.1165 23.2213 15.7631 23.2607 15.4099 23.2457Z" fill="#FEFEFE"/>
<path d="M63.4616 23.787C63.2872 23.6354 63.1826 23.737 63.0416 23.8598C62.7004 24.1631 62.2258 24.11 62.0817 23.7734C61.9924 23.5964 61.9407 23.4028 61.9301 23.2048C61.9301 22.3586 61.9301 21.511 61.9301 20.6649H61.9058C61.9058 19.9795 61.9058 19.3002 61.9058 18.6102C61.9203 18.3675 61.8998 18.1239 61.8451 17.8869C61.6435 17.2349 61.087 16.8831 60.4107 16.8149C59.9277 16.7557 59.4381 16.785 58.9656 16.9013C58.2146 17.0735 57.5219 17.4395 56.9564 17.9627C56.5622 18.3433 56.2832 18.7998 56.3499 19.3942C56.3696 19.5807 56.4272 19.7429 56.6001 19.8051C56.9034 19.9173 57.5205 19.7763 57.6767 19.4109C57.8252 19.1193 57.8582 18.7825 57.7692 18.4677C57.7194 18.3453 57.7174 18.2087 57.7634 18.0849C57.8094 17.9611 57.9002 17.8591 58.0179 17.799C58.4148 17.5506 58.8839 17.4438 59.3492 17.4957C60.0786 17.5867 60.3925 17.8824 60.4683 18.4449C60.5233 18.9181 60.5512 19.394 60.5517 19.8703C60.559 19.9731 60.5335 20.0755 60.4791 20.1629C60.4246 20.2503 60.3439 20.3183 60.2484 20.3571C59.4903 20.7862 58.679 21.0849 57.9148 21.4883C56.8776 22.0341 56.3832 22.6589 56.5091 23.9235C56.5773 24.6044 57.055 25.1654 57.795 25.1063C58.2059 25.0729 58.6123 25.079 59.0081 24.9152C59.5418 24.6938 60.0543 24.4482 60.4638 24.0342C60.6154 23.872 60.6745 23.8613 60.7473 24.1024C60.8914 24.5922 61.1855 24.9744 61.7147 25.079C62.4608 25.2306 63.0795 24.9349 63.4661 24.2768C63.5601 24.1176 63.6375 23.9493 63.4616 23.787ZM59.9376 23.8219C59.6222 24.0236 59.3053 24.2207 58.9095 24.2177C58.7884 24.2203 58.6679 24.1987 58.5553 24.1542C58.4426 24.1096 58.34 24.043 58.2534 23.9583C58.1668 23.8735 58.098 23.7724 58.0511 23.6607C58.0041 23.549 57.9799 23.429 57.98 23.3079C57.9284 22.442 58.4197 21.9219 59.0915 21.4974C59.4857 21.2487 59.933 21.1092 60.3212 20.8529C60.4425 20.7741 60.4986 20.8211 60.4971 20.9621C60.4971 21.3048 60.4971 21.646 60.4971 21.9871C60.4971 22.2207 60.4789 22.4557 60.4971 22.6877C60.5293 22.9111 60.4931 23.1391 60.3932 23.3416C60.2933 23.544 60.1345 23.7115 59.9376 23.8219Z" fill="#231F20"/>
<path d="M41.9188 22.6744C41.7671 22.6016 41.6792 22.6547 41.5973 22.8002C41.3816 23.1833 41.0534 23.4908 40.6572 23.6812C39.7928 24.1088 38.9179 24.1528 38.0687 23.6433C36.8557 22.917 36.516 21.2778 36.6661 20.089C36.6858 19.9374 36.7632 19.8646 36.936 19.8676C37.6836 19.8767 38.4311 19.8676 39.1802 19.8676H39.6928C40.2705 19.8676 40.8467 19.8676 41.4229 19.8676C41.9051 19.8555 41.9749 19.7766 41.9142 19.2959C41.8611 18.9691 41.7589 18.6521 41.6109 18.3558C41.3827 17.8169 40.9764 17.3727 40.46 17.0972C39.5366 16.6241 38.5479 16.6787 37.629 17.0108C36.3431 17.4733 35.6047 18.4908 35.3181 19.8145C35.117 20.7063 35.1521 21.635 35.4197 22.5091C35.7957 23.7085 36.4811 24.632 37.7928 24.9459C39.0498 25.2491 40.2098 25.1673 41.2076 24.2423C41.5603 23.8997 41.8516 23.4991 42.0689 23.058C42.1735 22.87 42.0886 22.7593 41.9188 22.6744ZM36.8435 19.0806C37.0316 18.5393 37.2681 18.0404 37.7533 17.6977C37.9858 17.5178 38.2637 17.4058 38.556 17.3742C38.8483 17.3426 39.1436 17.3927 39.4092 17.5188C40.0157 17.8023 40.2038 18.3785 40.2113 19.0169C40.2145 19.046 40.2118 19.0753 40.2035 19.1033C40.1952 19.1313 40.1814 19.1573 40.1629 19.1799C40.1444 19.2025 40.1216 19.2211 40.0958 19.2348C40.07 19.2485 40.0418 19.2569 40.0127 19.2596C39.7728 19.2999 39.5294 19.3146 39.2864 19.3035C38.971 19.3035 38.6556 19.3035 38.3402 19.3035C37.8853 19.3035 37.4395 19.3035 36.9876 19.3035C36.8117 19.302 36.7783 19.2686 36.8435 19.0806Z" fill="#231F20"/>
<path d="M16.4501 16.4886C16.4492 16.5585 16.4252 16.6261 16.3819 16.681C16.3385 16.7358 16.2783 16.7748 16.2105 16.7919C16.0774 16.8467 15.9377 16.8839 15.795 16.9026C15.2188 16.9405 14.6608 17.0845 14.0906 17.1528C13.7085 17.1983 13.3325 17.2801 12.9473 17.3226C12.8215 17.3362 12.7729 17.3089 12.7957 17.1846C12.9094 16.6509 13.0186 16.1232 13.3704 15.6683C13.8101 15.1087 14.6183 14.8039 15.2961 14.998C15.7996 15.1421 16.0937 15.5242 16.2848 15.9897C16.3546 16.155 16.3985 16.3309 16.4501 16.4886Z" fill="#60BA46"/>
</svg>
