<svg width="73" height="37" viewBox="0 0 73 37" fill="none" xmlns="http://www.w3.org/2000/svg">
<rect width="73" height="37" rx="5" fill="white"/>
<path d="M35.0211 13.6585C35.4579 13.8114 35.8001 14.0516 36.0476 14.3793C36.2952 14.6996 36.4189 15.0891 36.4189 15.5478C36.4189 16.2176 36.1496 16.7345 35.6108 17.0985C35.072 17.4626 34.293 17.6446 33.2737 17.6446H29.1457V10H33.0553C34.0309 10 34.7735 10.182 35.2832 10.546C35.7928 10.9028 36.0476 11.3869 36.0476 11.9985C36.0476 12.3625 35.9566 12.6902 35.7746 12.9814C35.5999 13.2653 35.3487 13.491 35.0211 13.6585ZM31.2861 11.5617V13.036H32.7714C33.4994 13.036 33.8635 12.7885 33.8635 12.2934C33.8635 11.8056 33.4994 11.5617 32.7714 11.5617H31.2861ZM33.099 16.0829C33.8562 16.0829 34.2348 15.8244 34.2348 15.3075C34.2348 14.7906 33.8562 14.5321 33.099 14.5321H31.2861V16.0829H33.099Z" fill="#666666"/>
<path d="M42.5516 16.1593H39.319L38.7184 17.6446H36.5124L39.8869 10H42.0165L45.4019 17.6446H43.1522L42.5516 16.1593ZM41.9182 14.5649L40.9353 12.1186L39.9524 14.5649H41.9182Z" fill="#666666"/>
<path d="M53.179 10V17.6446H51.3989L48.0244 13.5711V17.6446H45.9057V10H47.6858L51.0603 14.0735V10H53.179Z" fill="#666666"/>
<path d="M57.5436 14.8707L56.7355 15.7334V17.6446H54.595V10H56.7355V13.178L59.6951 10H62.0758L58.9524 13.3855L62.2396 17.6446H59.7278L57.5436 14.8707Z" fill="#666666"/>
<path d="M13.9566 21.9312H12V20.5024H17.7061V21.9312H15.7586V26.8729H13.9566V21.9312Z" fill="#666666"/>
<path d="M21.0713 25.1802H20.0884V26.8729H18.2864V20.5024H21.1987C21.775 20.5024 22.2756 20.5995 22.7003 20.7936C23.125 20.9817 23.4526 21.2547 23.6832 21.6127C23.9137 21.9646 24.029 22.3802 24.029 22.8595C24.029 23.3206 23.9198 23.7241 23.7014 24.0699C23.489 24.4096 23.1826 24.6766 22.7822 24.8707L24.1564 26.8729H22.227L21.0713 25.1802ZM22.2088 22.8595C22.2088 22.5622 22.1148 22.3316 21.9267 22.1678C21.7386 22.004 21.4596 21.9221 21.0895 21.9221H20.0884V23.7878H21.0895C21.4596 23.7878 21.7386 23.7089 21.9267 23.5511C22.1148 23.3873 22.2088 23.1568 22.2088 22.8595Z" fill="#666666"/>
<path d="M29.2003 25.6352H26.5065L26.006 26.8729H24.1676L26.9797 20.5024H28.7544L31.5756 26.8729H29.7008L29.2003 25.6352ZM28.6725 24.3065L27.8534 22.2679L27.0343 24.3065H28.6725Z" fill="#666666"/>
<path d="M38.0565 20.5024V26.8729H36.5731L33.761 23.4783V26.8729H31.9954V20.5024H33.4788L36.291 23.897V20.5024H38.0565Z" fill="#666666"/>
<path d="M41.4753 27.0003C40.9596 27.0003 40.459 26.9366 39.9737 26.8092C39.4883 26.6818 39.0939 26.5119 38.7906 26.2995L39.3821 24.9708C39.6673 25.1589 39.9979 25.3106 40.3741 25.4259C40.7503 25.5412 41.1204 25.5988 41.4844 25.5988C42.176 25.5988 42.5219 25.4259 42.5219 25.0801C42.5219 24.898 42.4218 24.7646 42.2215 24.6796C42.0274 24.5886 41.7119 24.4946 41.2751 24.3975C40.7958 24.2944 40.3953 24.1852 40.0738 24.0699C39.7522 23.9485 39.4762 23.7574 39.2456 23.4965C39.0151 23.2357 38.8998 22.8838 38.8998 22.4409C38.8998 22.0526 39.006 21.7037 39.2183 21.3943C39.4307 21.0788 39.7462 20.83 40.1648 20.648C40.5895 20.466 41.1082 20.375 41.721 20.375C42.1396 20.375 42.5522 20.4235 42.9587 20.5206C43.3652 20.6116 43.7232 20.7481 44.0326 20.9301L43.4774 22.2679C42.8707 21.9403 42.2822 21.7765 41.7119 21.7765C41.3539 21.7765 41.0931 21.8311 40.9292 21.9403C40.7654 22.0435 40.6835 22.18 40.6835 22.3498C40.6835 22.5197 40.7806 22.6471 40.9747 22.7321C41.1689 22.817 41.4814 22.905 41.9121 22.996C42.3975 23.0991 42.7979 23.2114 43.1134 23.3327C43.435 23.448 43.711 23.6361 43.9416 23.897C44.1782 24.1518 44.2965 24.5006 44.2965 24.9435C44.2965 25.3258 44.1903 25.6716 43.978 25.981C43.7656 26.2904 43.4471 26.5392 43.0224 26.7273C42.5977 26.9093 42.082 27.0003 41.4753 27.0003Z" fill="#666666"/>
<path d="M46.8398 21.8948V23.2963H49.6519V24.6887H46.8398V26.8729H45.0378V20.5024H50.0341V21.8948H46.8398Z" fill="#666666"/>
<path d="M55.9004 25.4805V26.8729H50.7859V20.5024H55.7821V21.8948H52.5696V22.9687H55.3999V24.3156H52.5696V25.4805H55.9004Z" fill="#666666"/>
<path d="M59.5942 25.1802H58.6113V26.8729H56.8094V20.5024H59.7216C60.298 20.5024 60.7985 20.5995 61.2232 20.7936C61.6479 20.9817 61.9755 21.2547 62.2061 21.6127C62.4366 21.9646 62.5519 22.3802 62.5519 22.8595C62.5519 23.3206 62.4427 23.7241 62.2243 24.0699C62.0119 24.4096 61.7055 24.6766 61.3051 24.8707L62.6793 26.8729H60.75L59.5942 25.1802ZM60.7318 22.8595C60.7318 22.5622 60.6377 22.3316 60.4496 22.1678C60.2616 22.004 59.9825 21.9221 59.6124 21.9221H58.6113V23.7878H59.6124C59.9825 23.7878 60.2616 23.7089 60.4496 23.5511C60.6377 23.3873 60.7318 23.1568 60.7318 22.8595Z" fill="#666666"/>
<rect x="12" y="10.3633" width="14.5611" height="1.82014" fill="url(#paint0_linear_1251_222)"/>
<rect x="12" y="13.0938" width="14.5611" height="1.82014" fill="url(#paint1_linear_1251_222)"/>
<rect x="12" y="15.8242" width="14.5611" height="1.82014" fill="url(#paint2_linear_1251_222)"/>
<defs>
<linearGradient id="paint0_linear_1251_222" x1="26.5611" y1="11.2734" x2="12" y2="11.2734" gradientUnits="userSpaceOnUse">
<stop stop-color="#666666"/>
<stop offset="0.604167" stop-color="#9D9D9D" stop-opacity="0.520833"/>
<stop offset="1" stop-color="#D9D9D9" stop-opacity="0"/>
</linearGradient>
<linearGradient id="paint1_linear_1251_222" x1="26.5611" y1="14.0038" x2="12" y2="14.0038" gradientUnits="userSpaceOnUse">
<stop stop-color="#666666"/>
<stop offset="0.604167" stop-color="#9D9D9D" stop-opacity="0.520833"/>
<stop offset="1" stop-color="#D9D9D9" stop-opacity="0"/>
</linearGradient>
<linearGradient id="paint2_linear_1251_222" x1="26.5611" y1="16.7343" x2="12" y2="16.7343" gradientUnits="userSpaceOnUse">
<stop stop-color="#666666"/>
<stop offset="0.604167" stop-color="#9D9D9D" stop-opacity="0.520833"/>
<stop offset="1" stop-color="#D9D9D9" stop-opacity="0"/>
</linearGradient>
</defs>
</svg>
